<svg xmlns="http://www.w3.org/2000/svg" viewBox="0 0 232.1 63.1"><style type="text/css">  
	.st0{fill:#FA641E;}
	.st1{fill:#FFFFFF;}
</style><path class="st0" d="M208.3 58.8h-36.5V23.6c0-10.7 8.7-19.3 19.3-19.3h36.5v35.2C227.6 50.1 218.9 58.8 208.3 58.8z"/><rect x="27.4" y="21.7" class="st1" width="5" height="20.7"/><rect x="182.4" y="21.4" class="st1" width="6.5" height="21.1"/><path class="st1" d="M13.1 21.7H9.5 7 4.5v20.7h3 1.9 4.8c0 0 8.8-0.8 8.8-10.4C23.1 21.7 13.1 21.7 13.1 21.7zM13.9 37.5H9.5V26.7c1.3 0 3 0 3.9 0 1.5 0 4.7 0.4 4.7 5.4S13.9 37.5 13.9 37.5z"/><path class="st1" d="M36 37.5l3.9-2.5c0 0 1.6 3 4.3 3.2 3 0.2 4.9-0.2 4.9-1.6 0-2-1.5-2.8-3.9-2.8 -2.4-0.1-7.9-1.1-7.9-5.6 0-4.1 2.2-7.2 7.9-7.2 6.4 0 8.6 5.1 8.6 5.1l-4 2c0 0-1.5-1.9-3.9-2.4C44.7 25.5 42 26 42 27.4c0 1.3 1.7 1.8 4.2 2.2 2.3 0.3 7.9 0.9 7.8 6.3 0 5.2-4 7.2-8.6 7.2S38.1 41.6 36 37.5z"/><path class="st1" d="M75.9 26.7v-5h-8.1c0 0-10-0.3-10 10.2s9.3 10.5 11 10.5c1.7 0 7.1 0 7.1 0v-5c0 0-6.8 0-8.4 0s-4.9-0.6-4.9-5.5 3.2-5.2 6.2-5.2S75.9 26.7 75.9 26.7z"/><path class="st1" d="M96 32.1c0 3.4-2.6 6.1-5.8 6.1s-5.8-2.7-5.8-6.1c0-3.4 2.6-6.1 5.8-6.1S96 28.7 96 32.1zM90.3 21c-5.8 0-10.5 5-10.5 11.1s4.7 11.1 10.5 11.1c5.8 0 10.5-5 10.5-11.1S96.1 21 90.3 21z"/><polygon class="st1" points="107.1 21.7 112.5 35.6 117.9 21.7 123.5 21.7 114.9 42.5 110 42.5 101.5 21.7 "/><polygon class="st1" points="142.6 26.8 142.6 21.7 127.2 21.7 127.2 42.5 142.6 42.5 142.6 37.3 132 37.3 132 34.4 142.1 34.4 142.1 29.7 132.1 29.7 132.1 26.7 "/><path class="st1" d="M147.4 42.5V21.7h8.9c0 0 8.4-1 8.4 7.1 0 6.5-4.3 6.4-4.3 6.4l5.2 6v1.3h-5.1l-5.7-6.5h-2.4v6.5H147.4zM155.6 31.6c0.7 0 4.1 0.4 4.2-2.4 0.1-2.8-2.4-2.4-2.4-2.4h-5v4.7C152.4 31.6 154.9 31.6 155.6 31.6z"/><polygon class="st1" points="217.2 21.4 192.5 21.4 192.5 26.7 201.8 26.7 201.8 42.5 208.3 42.5 208.3 26.7 217.2 26.7 "/></svg>